<svg xmlns="http://www.w3.org/2000/svg" version="1.1" xmlns:xlink="http://www.w3.org/1999/xlink" xmlns:svgjs="http://svgjs.dev/svgjs" width="1000" height="261" viewBox="0 0 1000 261"><g transform="matrix(1,0,0,1,0.10666666666668334,0.5451704081632442)"><svg viewBox="0 0 375 98" data-background-color="#ffffff" preserveAspectRatio="xMidYMid meet" height="261" width="1000" xmlns="http://www.w3.org/2000/svg" xmlns:xlink="http://www.w3.org/1999/xlink"><g id="tight-bounds" transform="matrix(1,0,0,1,-0.03976000000000113,-0.20443999999997686)"><svg viewBox="0 0 375.07953 98.40913999999998" height="98.40913999999998" width="375.07953"><g><svg></svg></g><g><svg viewBox="0 0 375.07953 98.40913999999998" height="98.40913999999998" width="375.07953"><g transform="matrix(1,0,0,1,-10.22024,-77.15226000000001)"><path d="M10.22 170.048v-92.896h375.08v92.896l-19.959 0 0-3.124h16.835v-86.648h-368.832v86.648h32.815l0 3.124z" fill="#e8d584" fill-rule="nonzero" stroke="none" stroke-width="1" stroke-linecap="butt" stroke-linejoin="miter" stroke-miterlimit="10" stroke-dasharray="" stroke-dashoffset="0" font-family="none" font-weight="none" font-size="none" text-anchor="none" style="mix-blend-mode: normal" data-fill-palette-color="tertiary"></path><g><path d="M63.487 172.351h-4.798c-0.817 0-1.455-0.115-1.915-0.345-0.46-0.23-0.782-0.575-0.967-1.035-0.184-0.46-0.276-1.03-0.276-1.709v0-3.848c0-1.104 0.247-1.919 0.742-2.444 0.495-0.522 1.3-0.783 2.416-0.783v0h5.195c0.794 0 1.401 0.043 1.822 0.127 0.419 0.087 0.628 0.177 0.628 0.27v0l-0.345 1.432c-0.196-0.035-0.773-0.072-1.733-0.114-0.962-0.039-2.357-0.059-4.186-0.059v0h-0.88c-0.92 0-1.381 0.408-1.381 1.226v0 4.4c0 0.391 0.101 0.693 0.304 0.905 0.2 0.214 0.559 0.321 1.077 0.321v0h0.707c1.91 0 3.392-0.021 4.446-0.062 1.052-0.039 1.704-0.082 1.957-0.128v0l0.707 1.139c0 0.058-0.094 0.144-0.283 0.259-0.191 0.115-0.54 0.219-1.046 0.31-0.506 0.092-1.237 0.138-2.191 0.138zM76.171 172.351h-4.763c-0.771 0-1.344-0.155-1.719-0.465-0.373-0.311-0.559-0.817-0.559-1.519v0-3.538c0-0.173 0.014-0.382 0.041-0.628 0.03-0.249 0.11-0.494 0.242-0.735 0.133-0.242 0.358-0.443 0.673-0.604 0.318-0.161 0.758-0.242 1.322-0.242v0h4.763c0.575 0 1.018 0.081 1.329 0.242 0.311 0.161 0.532 0.362 0.663 0.604 0.133 0.242 0.214 0.487 0.241 0.735 0.03 0.246 0.045 0.456 0.045 0.628v0 3.314c0 0.207-0.015 0.437-0.045 0.69-0.028 0.253-0.11 0.495-0.248 0.725-0.138 0.23-0.362 0.42-0.673 0.569-0.311 0.15-0.748 0.224-1.312 0.224zM72.064 170.867v0h3.451c0.564 0 0.846-0.23 0.846-0.69v0-3.382c0-0.46-0.282-0.69-0.846-0.691v0h-3.451c-0.552 0-0.828 0.23-0.829 0.691v0 3.382c0 0.46 0.276 0.69 0.829 0.69zM83.368 172.351h-2.106v-7.731h1.415l0.691 0.345c0.483-0.092 1.064-0.173 1.743-0.241 0.679-0.069 1.455-0.104 2.329-0.104v0h0.863c0.575 0 1.018 0.081 1.329 0.242 0.311 0.161 0.532 0.362 0.663 0.604 0.133 0.242 0.214 0.487 0.241 0.735 0.03 0.246 0.045 0.456 0.045 0.628v0 5.522h-2.105v-5.556c0-0.46-0.276-0.69-0.829-0.691v0h-3.762c-0.219 0-0.36 0.02-0.424 0.059-0.062 0.041-0.093 0.148-0.093 0.321v0zM100.311 172.351h-4.884c-0.771 0-1.317-0.04-1.639-0.12-0.322-0.081-0.483-0.161-0.483-0.242v0l0.517-1.294c0.334 0.035 0.947 0.071 1.84 0.11 0.89 0.041 1.992 0.062 3.303 0.062v0h0.863c0.288 0 0.469-0.078 0.545-0.234 0.074-0.154 0.11-0.364 0.111-0.629v0c0-0.265-0.043-0.477-0.128-0.638-0.087-0.161-0.263-0.242-0.528-0.242v0h-4.245c-0.805 0-1.386-0.153-1.744-0.459-0.357-0.304-0.535-0.76-0.535-1.37v0-0.69c0-0.161 0.017-0.351 0.052-0.57 0.035-0.219 0.121-0.437 0.259-0.656 0.138-0.219 0.362-0.4 0.673-0.545 0.311-0.143 0.742-0.214 1.294-0.214v0h4.764c0.69 0 1.179 0.04 1.467 0.121 0.288 0.081 0.431 0.161 0.431 0.241v0l-0.173 1.295c-0.334-0.035-0.949-0.072-1.846-0.114-0.897-0.039-1.996-0.059-3.296-0.059v0h-0.863c-0.288 0-0.468 0.077-0.542 0.231-0.076 0.156-0.114 0.338-0.114 0.546v0c0 0.219 0.038 0.399 0.114 0.542 0.074 0.145 0.254 0.217 0.542 0.217v0h4.245c0.782 0 1.358 0.161 1.726 0.483 0.368 0.322 0.552 0.731 0.552 1.226v0 1.018c0 0.207-0.014 0.426-0.041 0.656-0.03 0.23-0.114 0.445-0.252 0.645-0.138 0.202-0.362 0.367-0.673 0.494-0.311 0.127-0.748 0.19-1.312 0.189zM108.94 172.351h-0.535c-0.874 0-1.473-0.184-1.795-0.552-0.322-0.368-0.483-0.92-0.483-1.656v0-4.039h-1.415v-1.484h0.725c0.219 0 0.377-0.035 0.476-0.103 0.097-0.069 0.168-0.207 0.214-0.415v0l0.345-1.846h1.76v2.364h3.59v1.484h-3.59v4.056c0 0.288 0.069 0.477 0.207 0.569 0.138 0.092 0.345 0.138 0.622 0.138v0h2.433l0.173 1.312c-0.242 0.035-0.61 0.071-1.105 0.11-0.495 0.041-1.035 0.062-1.622 0.062zM116.223 172.351h-2.106v-7.731h1.415l0.656 0.345c0.299-0.161 0.621-0.288 0.967-0.379 0.345-0.092 0.782-0.138 1.311-0.139v0c0.84 0 1.522 0.092 2.047 0.277 0.522 0.184 0.87 0.322 1.042 0.414v0l-0.604 1.501c-0.138-0.069-0.365-0.158-0.68-0.266-0.318-0.11-0.689-0.212-1.115-0.303-0.426-0.092-0.892-0.138-1.397-0.138v0h-0.19c-0.552 0-0.911 0.109-1.077 0.328-0.168 0.219-0.258 0.581-0.269 1.087v0zM126.836 172.351h-0.88c-0.564 0-1.004-0.075-1.322-0.224-0.315-0.15-0.54-0.339-0.673-0.569-0.131-0.23-0.212-0.472-0.242-0.725-0.028-0.253-0.041-0.483-0.041-0.69v0-5.523h2.105v5.557c-0.012 0.253 0.071 0.431 0.249 0.535 0.179 0.104 0.373 0.155 0.58 0.155v0h3.417c0.253 0 0.403-0.023 0.448-0.069 0.046-0.046 0.069-0.196 0.069-0.448v0-5.73h2.106v7.731h-1.415l-0.656-0.345c-0.46 0.092-1.004 0.173-1.633 0.242-0.626 0.069-1.33 0.104-2.112 0.104zM141.212 172.351h-3.469c-0.575 0-1.018-0.075-1.329-0.224-0.311-0.15-0.533-0.339-0.666-0.569-0.131-0.23-0.212-0.472-0.242-0.725-0.028-0.253-0.041-0.483-0.041-0.69v0-3.314c0-0.173 0.014-0.382 0.041-0.628 0.03-0.249 0.11-0.494 0.242-0.735 0.133-0.242 0.358-0.443 0.673-0.604 0.318-0.161 0.758-0.242 1.322-0.242v0h2.399c1.438 0 2.459 0.037 3.061 0.11 0.605 0.076 0.908 0.154 0.908 0.235v0l-0.345 1.312c-0.322-0.023-0.731-0.048-1.225-0.076-0.495-0.03-1.027-0.054-1.599-0.073-0.568-0.016-1.123-0.024-1.663-0.024v0h-0.88c-0.552 0-0.828 0.23-0.829 0.691v0 3.382c-0.012 0.46 0.265 0.69 0.829 0.69v0h0.88c0.621 0 1.228-0.009 1.819-0.027 0.594-0.016 1.138-0.039 1.632-0.069 0.495-0.028 0.892-0.053 1.191-0.076v0l0.69 1.122c0 0.357-1.133 0.535-3.399 0.534zM150.269 172.351h-0.535c-0.874 0-1.473-0.184-1.795-0.552-0.322-0.368-0.483-0.92-0.483-1.656v0-4.039h-1.416v-1.484h0.725c0.219 0 0.377-0.035 0.477-0.103 0.097-0.069 0.168-0.207 0.214-0.415v0l0.345-1.846h1.76v2.364h3.59v1.484h-3.59v4.056c0 0.288 0.069 0.477 0.207 0.569 0.138 0.092 0.345 0.138 0.621 0.138v0h2.434l0.172 1.312c-0.242 0.035-0.61 0.071-1.104 0.11-0.495 0.041-1.035 0.062-1.623 0.062zM156.671 163.533v0c-0.426 0-0.736-0.086-0.932-0.259-0.196-0.173-0.293-0.46-0.293-0.863v0c0-0.414 0.095-0.705 0.286-0.873 0.189-0.166 0.502-0.249 0.939-0.249v0c0.437 0 0.754 0.083 0.949 0.249 0.196 0.168 0.293 0.459 0.294 0.873v0c0 0.391-0.098 0.675-0.294 0.853-0.196 0.179-0.512 0.269-0.949 0.269zM157.724 172.351h-2.106v-7.731h2.106zM167.768 172.351h-4.763c-0.771 0-1.343-0.155-1.716-0.465-0.375-0.311-0.563-0.817-0.562-1.519v0-3.538c0-0.173 0.015-0.382 0.045-0.628 0.028-0.249 0.108-0.494 0.241-0.735 0.131-0.242 0.356-0.443 0.673-0.604 0.315-0.161 0.755-0.242 1.319-0.242v0h4.763c0.575 0 1.018 0.081 1.329 0.242 0.311 0.161 0.533 0.362 0.666 0.604 0.131 0.242 0.212 0.487 0.241 0.735 0.028 0.246 0.041 0.456 0.042 0.628v0 3.314c0 0.207-0.014 0.437-0.042 0.69-0.03 0.253-0.114 0.495-0.252 0.725-0.138 0.23-0.362 0.42-0.673 0.569-0.311 0.15-0.748 0.224-1.311 0.224zM163.66 170.867v0h3.452c0.564 0 0.846-0.23 0.846-0.69v0-3.382c0-0.46-0.282-0.69-0.846-0.691v0h-3.452c-0.552 0-0.828 0.23-0.828 0.691v0 3.382c0 0.46 0.276 0.69 0.828 0.69zM174.964 172.351h-2.105v-7.731h1.415l0.69 0.345c0.483-0.092 1.064-0.173 1.743-0.241 0.679-0.069 1.455-0.104 2.33-0.104v0h0.863c0.575 0 1.018 0.081 1.329 0.242 0.311 0.161 0.532 0.362 0.662 0.604 0.133 0.242 0.214 0.487 0.242 0.735 0.03 0.246 0.045 0.456 0.045 0.628v0 5.522h-2.106v-5.556c0-0.46-0.276-0.69-0.828-0.691v0h-3.762c-0.219 0-0.36 0.02-0.425 0.059-0.062 0.041-0.093 0.148-0.093 0.321v0zM192.874 172.351h-0.863c-0.874 0-1.507-0.205-1.898-0.614-0.391-0.407-0.587-0.968-0.587-1.681v0c0-0.748 0.205-1.323 0.615-1.726 0.407-0.403 1.031-0.604 1.87-0.604v0h0.88c0.863 0 1.639 0.023 2.33 0.069 0.69 0.046 1.26 0.092 1.709 0.139v0-1.139c0-0.104-0.012-0.211-0.035-0.321-0.023-0.108-0.092-0.197-0.207-0.266-0.115-0.069-0.311-0.104-0.587-0.104v0h-0.863c-1.254 0-2.301 0.02-3.14 0.059-0.84 0.041-1.409 0.079-1.709 0.114v0l-0.19-1.312c0-0.161 0.437-0.259 1.312-0.293 0.874-0.035 2.336-0.052 4.383-0.052v0h0.863c0.575 0 1.018 0.081 1.329 0.242 0.311 0.161 0.533 0.362 0.666 0.604 0.131 0.242 0.212 0.487 0.242 0.735 0.028 0.246 0.041 0.456 0.041 0.628v0 5.523h-1.415l-0.673-0.346c-0.483 0.081-1.064 0.158-1.743 0.232-0.679 0.076-1.455 0.114-2.33 0.114zM192.46 170.867v0h3.952c0.253 0 0.403-0.023 0.449-0.069 0.046-0.046 0.069-0.19 0.069-0.431v0-1.329h-4.47c-0.311 0-0.526 0.075-0.645 0.224-0.122 0.15-0.183 0.385-0.183 0.708v0c0 0.322 0.069 0.552 0.207 0.69 0.138 0.138 0.345 0.207 0.621 0.207zM204.04 172.351h-2.106v-7.731h1.416l0.69 0.345c0.483-0.092 1.064-0.173 1.743-0.241 0.679-0.069 1.455-0.104 2.33-0.104v0h0.863c0.575 0 1.018 0.081 1.328 0.242 0.311 0.161 0.533 0.362 0.667 0.604 0.131 0.242 0.212 0.487 0.241 0.735 0.028 0.246 0.041 0.456 0.042 0.628v0 5.522h-2.106v-5.556c0-0.46-0.276-0.69-0.828-0.691v0h-3.762c-0.219 0-0.359 0.02-0.421 0.059-0.064 0.041-0.097 0.148-0.097 0.321v0zM217.121 172.351h-0.863c-0.575 0-1.018-0.075-1.329-0.224-0.311-0.15-0.532-0.339-0.662-0.569-0.133-0.23-0.214-0.472-0.242-0.725-0.03-0.253-0.045-0.483-0.045-0.69v0-3.314c0-0.173 0.015-0.382 0.045-0.628 0.028-0.249 0.108-0.494 0.242-0.735 0.131-0.242 0.356-0.443 0.673-0.604 0.315-0.161 0.755-0.242 1.318-0.242v0h0.88c1.058 0 1.913 0.02 2.565 0.059 0.649 0.041 1.146 0.085 1.491 0.131v0-3.4h2.105v10.941h-1.415l-0.673-0.345c-0.483 0.081-1.064 0.158-1.743 0.232-0.679 0.076-1.461 0.114-2.347 0.113zM216.914 170.867v0h3.745c0.242 0 0.391-0.029 0.449-0.086 0.058-0.058 0.086-0.201 0.086-0.431v0-4.125c-0.391-0.023-0.886-0.049-1.484-0.079-0.598-0.028-1.237-0.041-1.916-0.042v0h-0.88c-0.552 0-0.828 0.23-0.828 0.691v0 3.382c0 0.46 0.276 0.69 0.828 0.69zM233.274 175.561h-2.105v-10.941h1.415l0.431 0.224c0.518-0.058 1.136-0.109 1.854-0.155 0.72-0.046 1.541-0.069 2.461-0.069v0h0.88c0.575 0 1.018 0.075 1.329 0.224 0.311 0.15 0.532 0.339 0.663 0.57 0.133 0.23 0.214 0.472 0.241 0.725 0.03 0.253 0.045 0.483 0.045 0.69v0 3.314c0 0.173-0.015 0.382-0.045 0.628-0.028 0.249-0.108 0.494-0.241 0.735-0.131 0.242-0.352 0.443-0.663 0.604-0.311 0.161-0.754 0.242-1.329 0.241v0h-0.88c-0.874 0-1.651-0.023-2.33-0.069-0.679-0.046-1.254-0.092-1.726-0.138v0zM233.809 170.867v0h3.745c0.219 0 0.411-0.058 0.577-0.172 0.168-0.115 0.252-0.288 0.252-0.518v0-3.382c0.012-0.253-0.049-0.431-0.183-0.535-0.131-0.104-0.346-0.155-0.646-0.156v0h-0.863c-0.736 0-1.39 0.014-1.96 0.042-0.568 0.03-1.054 0.062-1.457 0.096v0 4.09c0 0.253 0.025 0.405 0.076 0.456 0.053 0.053 0.206 0.079 0.459 0.079zM245.403 172.351h-2.105v-7.731h1.415l0.655 0.345c0.299-0.161 0.621-0.288 0.967-0.379 0.345-0.092 0.782-0.138 1.311-0.139v0c0.84 0 1.522 0.092 2.047 0.277 0.522 0.184 0.87 0.322 1.043 0.414v0l-0.604 1.501c-0.138-0.069-0.365-0.158-0.68-0.266-0.318-0.11-0.689-0.212-1.115-0.303-0.426-0.092-0.892-0.138-1.398-0.138v0h-0.19c-0.552 0-0.911 0.109-1.077 0.328-0.168 0.219-0.258 0.581-0.269 1.087v0zM259.727 172.351h-4.763c-0.771 0-1.343-0.155-1.716-0.465-0.375-0.311-0.563-0.817-0.562-1.519v0-3.538c0-0.173 0.015-0.382 0.045-0.628 0.028-0.249 0.108-0.494 0.241-0.735 0.131-0.242 0.356-0.443 0.673-0.604 0.315-0.161 0.755-0.242 1.319-0.242v0h4.763c0.575 0 1.018 0.081 1.329 0.242 0.311 0.161 0.533 0.362 0.666 0.604 0.131 0.242 0.212 0.487 0.241 0.735 0.028 0.246 0.041 0.456 0.042 0.628v0 3.314c0 0.207-0.014 0.437-0.042 0.69-0.03 0.253-0.114 0.495-0.252 0.725-0.138 0.23-0.362 0.42-0.673 0.569-0.311 0.15-0.748 0.224-1.311 0.224zM255.619 170.867v0h3.452c0.564 0 0.846-0.23 0.846-0.69v0-3.382c0-0.46-0.282-0.69-0.846-0.691v0h-3.452c-0.552 0-0.828 0.23-0.828 0.691v0 3.382c0 0.46 0.276 0.69 0.828 0.69zM270.392 172.351h-3.469c-0.575 0-1.018-0.075-1.329-0.224-0.311-0.15-0.532-0.339-0.662-0.569-0.133-0.23-0.214-0.472-0.242-0.725-0.03-0.253-0.045-0.483-0.045-0.69v0-3.314c0-0.173 0.015-0.382 0.045-0.628 0.028-0.249 0.108-0.494 0.242-0.735 0.131-0.242 0.356-0.443 0.673-0.604 0.315-0.161 0.755-0.242 1.318-0.242v0h2.399c1.438 0 2.46 0.037 3.065 0.11 0.603 0.076 0.904 0.154 0.904 0.235v0l-0.345 1.312c-0.322-0.023-0.731-0.048-1.225-0.076-0.495-0.03-1.026-0.054-1.595-0.073-0.571-0.016-1.126-0.024-1.667-0.024v0h-0.88c-0.552 0-0.828 0.23-0.828 0.691v0 3.382c-0.012 0.46 0.265 0.69 0.828 0.69v0h0.88c0.621 0 1.229-0.009 1.823-0.027 0.591-0.016 1.134-0.039 1.629-0.069 0.495-0.028 0.892-0.053 1.19-0.076v0l0.691 1.122c0 0.357-1.133 0.535-3.4 0.534zM279.073 172.351h-0.881c-0.564 0-1.004-0.075-1.321-0.224-0.315-0.15-0.54-0.339-0.674-0.569-0.131-0.23-0.212-0.472-0.241-0.725-0.028-0.253-0.041-0.483-0.042-0.69v0-5.523h2.106v5.557c-0.012 0.253 0.071 0.431 0.248 0.535 0.179 0.104 0.373 0.155 0.58 0.155v0h3.417c0.253 0 0.403-0.023 0.449-0.069 0.046-0.046 0.069-0.196 0.069-0.448v0-5.73h2.105v7.731h-1.415l-0.656-0.345c-0.46 0.092-1.004 0.173-1.632 0.242-0.626 0.069-1.33 0.104-2.112 0.104zM289.979 172.351h-2.105v-7.731h1.415l0.656 0.345c0.299-0.161 0.621-0.288 0.966-0.379 0.345-0.092 0.782-0.138 1.312-0.139v0c0.84 0 1.521 0.092 2.043 0.277 0.525 0.184 0.873 0.322 1.046 0.414v0l-0.604 1.501c-0.138-0.069-0.366-0.158-0.683-0.266-0.315-0.11-0.686-0.212-1.112-0.303-0.426-0.092-0.892-0.138-1.398-0.138v0h-0.189c-0.552 0-0.912 0.109-1.081 0.328-0.166 0.219-0.254 0.581-0.266 1.087v0zM303.005 172.351h-3.468c-0.575 0-1.018-0.075-1.329-0.224-0.311-0.15-0.532-0.339-0.663-0.569-0.133-0.23-0.214-0.472-0.241-0.725-0.03-0.253-0.045-0.483-0.045-0.69v0-3.314c0-0.173 0.015-0.382 0.045-0.628 0.028-0.249 0.108-0.494 0.241-0.735 0.131-0.242 0.356-0.443 0.673-0.604 0.315-0.161 0.755-0.242 1.319-0.242v0h3.71c0.759 0 1.355 0.071 1.788 0.214 0.43 0.145 0.735 0.379 0.915 0.701 0.177 0.322 0.266 0.754 0.265 1.294v0 2.554h-3.02c-1.035 0-1.878-0.023-2.526-0.069-0.651-0.046-1.086-0.075-1.305-0.086v0 0.949c-0.012 0.46 0.265 0.69 0.828 0.69v0h0.881c0.621 0 1.229-0.009 1.822-0.027 0.591-0.016 1.134-0.039 1.629-0.069 0.495-0.028 0.892-0.053 1.191-0.076v0l0.69 1.121c0 0.357-1.133 0.535-3.4 0.535zM299.364 166.795v1.104h4.746v-1.104c0-0.23-0.025-0.391-0.076-0.484-0.053-0.092-0.206-0.15-0.459-0.172-0.253-0.023-0.685-0.035-1.294-0.035v0h-2.088c-0.552 0-0.828 0.23-0.829 0.691zM311.151 172.351h-2.105v-7.731h1.415l0.431 0.207c0.334-0.058 0.742-0.107 1.226-0.148 0.483-0.039 1.058-0.059 1.725-0.059v0h0.863c0.334 0 0.656 0.043 0.967 0.128 0.311 0.087 0.541 0.212 0.69 0.373v0c0.299-0.15 0.713-0.27 1.242-0.363 0.529-0.092 1.22-0.138 2.071-0.138v0h0.863c0.575 0 1.018 0.081 1.329 0.242 0.311 0.161 0.533 0.362 0.666 0.604 0.131 0.242 0.212 0.487 0.242 0.735 0.028 0.246 0.041 0.456 0.041 0.628v0 5.522h-2.105v-5.556c0-0.46-0.276-0.69-0.829-0.691v0h-2.416c-0.184 0-0.311 0.023-0.379 0.069-0.069 0.046-0.104 0.15-0.104 0.311v0 5.867h-2.105v-5.556c0-0.46-0.276-0.69-0.829-0.691v0h-2.381c-0.219 0-0.359 0.02-0.421 0.059-0.064 0.041-0.097 0.148-0.097 0.321v0zM331.291 172.351h-3.469c-0.575 0-1.018-0.075-1.329-0.224-0.311-0.15-0.532-0.339-0.663-0.569-0.133-0.23-0.214-0.472-0.241-0.725-0.03-0.253-0.045-0.483-0.045-0.69v0-3.314c0-0.173 0.015-0.382 0.045-0.628 0.028-0.249 0.108-0.494 0.241-0.735 0.131-0.242 0.356-0.443 0.673-0.604 0.315-0.161 0.755-0.242 1.319-0.242v0h3.71c0.759 0 1.355 0.071 1.788 0.214 0.43 0.145 0.735 0.379 0.915 0.701 0.177 0.322 0.266 0.754 0.266 1.294v0 2.554h-3.02c-1.035 0-1.878-0.023-2.527-0.069-0.651-0.046-1.086-0.075-1.305-0.086v0 0.949c-0.012 0.46 0.265 0.69 0.829 0.69v0h0.88c0.621 0 1.229-0.009 1.822-0.027 0.591-0.016 1.134-0.039 1.629-0.069 0.495-0.028 0.892-0.053 1.191-0.076v0l0.691 1.121c0 0.357-1.133 0.535-3.4 0.535zM327.649 166.795v1.104h4.746v-1.104c0-0.23-0.025-0.391-0.076-0.484-0.053-0.092-0.206-0.15-0.459-0.172-0.253-0.023-0.685-0.035-1.294-0.035v0h-2.088c-0.552 0-0.828 0.23-0.829 0.691zM339.436 172.351h-2.105v-7.731h1.415l0.69 0.345c0.483-0.092 1.064-0.173 1.743-0.241 0.679-0.069 1.455-0.104 2.33-0.104v0h0.863c0.575 0 1.018 0.081 1.329 0.242 0.311 0.161 0.532 0.362 0.663 0.604 0.133 0.242 0.214 0.487 0.241 0.735 0.03 0.246 0.045 0.456 0.045 0.628v0 5.522h-2.105v-5.556c0-0.46-0.276-0.69-0.829-0.691v0h-3.762c-0.219 0-0.36 0.02-0.424 0.059-0.062 0.041-0.093 0.148-0.094 0.321v0zM353.087 172.351h-0.535c-0.874 0-1.473-0.184-1.795-0.552-0.322-0.368-0.483-0.92-0.483-1.656v0-4.039h-1.415v-1.484h0.725c0.219 0 0.376-0.035 0.473-0.103 0.099-0.069 0.171-0.207 0.217-0.415v0l0.345-1.846h1.761v2.364h3.589v1.484h-3.589v4.056c0 0.288 0.069 0.477 0.207 0.569 0.138 0.092 0.345 0.138 0.621 0.138v0h2.433l0.173 1.312c-0.242 0.035-0.61 0.071-1.105 0.11-0.495 0.041-1.035 0.062-1.622 0.062z" fill="#e8d884" fill-rule="nonzero" stroke="none" stroke-width="1" stroke-linecap="butt" stroke-linejoin="miter" stroke-miterlimit="10" stroke-dasharray="" stroke-dashoffset="0" font-family="none" font-weight="none" font-size="none" text-anchor="none" style="mix-blend-mode: normal" data-fill-palette-color="secondary"></path></g></g><g transform="matrix(1,0,0,1,29.33176499999999,31.884104073441492)"><svg viewBox="0 0 316.416 34.640931853116996" height="34.640931853116996" width="316.416"><g><svg viewBox="0 0 316.416 34.640931853116996" height="34.640931853116996" width="316.416"><g><svg viewBox="0 0 316.416 34.640931853116996" height="34.640931853116996" width="316.416"><g><svg viewBox="0 0 316.416 34.640931853116996" height="34.640931853116996" width="316.416"><g id="textblocktransform"><svg viewBox="0 0 316.416 34.640931853116996" height="34.640931853116996" width="316.416" id="textblock"><g><svg viewBox="0 0 316.416 34.640931853116996" height="34.640931853116996" width="316.416"><g transform="matrix(1,0,0,1,0,0)"><svg width="316.416" viewBox="0 -32.05 292.73 32.05" height="34.640931853116996" data-palette-color="#e8d584"><path d="M7.3 0L0 0 14.65-29.4 24.5-29.4 39.1 0 31.4 0 28.45-6.35 10.55-6.35 7.3 0ZM19.25-24.9L12.35-11.25 26.6-11.25 19.75-24.9 19.25-24.9ZM52.35 0L50.8 0Q47 0 45.6-1.6 44.2-3.2 44.2-6.4L44.2-6.4 44.2-18.1 40.1-18.1 40.1-22.4 42.2-22.4Q43.15-22.4 43.57-22.7 44-23 44.2-23.9L44.2-23.9 45.2-29.25 50.3-29.25 50.3-22.4 60.7-22.4 60.7-18.1 50.3-18.1 50.3-6.35Q50.3-5.1 50.9-4.7 51.5-4.3 52.7-4.3L52.7-4.3 59.75-4.3 60.25-0.5Q59.2-0.35 57.05-0.18 54.9 0 52.35 0L52.35 0ZM71.3 0L65.2 0 65.2-27.7 64.7-31.7 71.3-31.7 71.3 0ZM86.24 0L83.74 0Q79.94 0 78.24-1.78 76.54-3.55 76.54-6.65L76.54-6.65Q76.54-9.9 78.32-11.65 80.09-13.4 83.74-13.4L83.74-13.4 86.29-13.4Q90.04-13.4 93.04-13.2 96.04-13 97.99-12.8L97.99-12.8 97.99-16.1Q97.99-16.55 97.89-17.03 97.79-17.5 97.29-17.8 96.79-18.1 95.59-18.1L95.59-18.1 93.09-18.1Q87.64-18.1 83.99-17.93 80.34-17.75 79.04-17.6L79.04-17.6 78.49-21.4Q78.49-22.1 82.29-22.25 86.09-22.4 94.99-22.4L94.99-22.4 97.49-22.4Q99.99-22.4 101.34-21.7 102.69-21 103.27-19.95 103.84-18.9 103.97-17.82 104.09-16.75 104.09-16L104.09-16 104.09 0 99.99 0 98.04-1Q95.94-0.65 92.99-0.33 90.04 0 86.24 0L86.24 0ZM85.04-4.3L85.04-4.3 96.49-4.3Q97.59-4.3 97.79-4.5 97.99-4.7 97.99-5.75L97.99-5.75 97.99-9.6 85.04-9.6Q83.69-9.6 83.17-8.95 82.64-8.3 82.64-6.9L82.64-6.9Q82.64-5.5 83.24-4.9 83.84-4.3 85.04-4.3ZM115.94 0L109.84 0 109.84-22.4 113.94-22.4 115.94-21.4Q118.04-21.8 120.99-22.1 123.94-22.4 127.74-22.4L127.74-22.4 130.24-22.4Q132.74-22.4 134.09-21.7 135.44-21 136.02-19.95 136.59-18.9 136.72-17.82 136.84-16.75 136.84-16L136.84-16 136.84 0 130.74 0 130.74-16.1Q130.74-18.1 128.34-18.1L128.34-18.1 117.44-18.1Q116.49-18.1 116.22-17.93 115.94-17.75 115.94-17L115.94-17 115.94 0ZM152.84 0L151.29 0Q147.49 0 146.09-1.6 144.69-3.2 144.69-6.4L144.69-6.4 144.69-18.1 140.59-18.1 140.59-22.4 142.69-22.4Q143.64-22.4 144.06-22.7 144.49-23 144.69-23.9L144.69-23.9 145.69-29.25 150.79-29.25 150.79-22.4 161.19-22.4 161.19-18.1 150.79-18.1 150.79-6.35Q150.79-5.1 151.39-4.7 151.99-4.3 153.19-4.3L153.19-4.3 160.24-4.3 160.74-0.5Q159.69-0.35 157.54-0.18 155.39 0 152.84 0L152.84 0ZM168.74-25.55L168.74-25.55Q166.89-25.55 166.04-26.3 165.19-27.05 165.19-28.8L165.19-28.8Q165.19-30.6 166.01-31.33 166.84-32.05 168.74-32.05L168.74-32.05Q170.64-32.05 171.49-31.33 172.34-30.6 172.34-28.8L172.34-28.8Q172.34-27.1 171.49-26.33 170.64-25.55 168.74-25.55ZM171.79 0L165.69 0 165.69-22.4 171.79-22.4 171.79 0ZM198.13 0L183.98 0Q180.63 0 179.23-0.35 177.83-0.7 177.83-1.05L177.83-1.05 179.33-4.8Q180.78-4.65 184.66-4.48 188.53-4.3 194.23-4.3L194.23-4.3 196.73-4.3Q197.98-4.3 198.31-4.98 198.63-5.65 198.63-6.8L198.63-6.8Q198.63-7.95 198.26-8.65 197.88-9.35 196.73-9.35L196.73-9.35 184.43-9.35Q180.93-9.35 179.38-10.68 177.83-12 177.83-14.65L177.83-14.65 177.83-16.65Q177.83-17.35 177.98-18.3 178.13-19.25 178.73-20.2 179.33-21.15 180.68-21.78 182.03-22.4 184.43-22.4L184.43-22.4 198.23-22.4Q201.23-22.4 202.48-22.05 203.73-21.7 203.73-21.35L203.73-21.35 203.23-17.6Q201.78-17.75 197.88-17.93 193.98-18.1 188.33-18.1L188.33-18.1 185.83-18.1Q184.58-18.1 184.26-17.43 183.93-16.75 183.93-15.85L183.93-15.85Q183.93-14.9 184.26-14.28 184.58-13.65 185.83-13.65L185.83-13.65 198.13-13.65Q201.53-13.65 203.13-12.25 204.73-10.85 204.73-8.7L204.73-8.7 204.73-5.75Q204.73-4.85 204.61-3.85 204.48-2.85 203.88-1.98 203.28-1.1 201.93-0.55 200.58 0 198.13 0L198.13 0ZM244.78 0L230.88 0Q227.33 0 225.33-1 223.33-2 222.53-4 221.73-6 221.73-8.95L221.73-8.95 221.73-20.1Q221.73-24.9 223.88-27.18 226.03-29.45 230.88-29.45L230.88-29.45 245.93-29.45Q249.38-29.45 251.2-29.08 253.03-28.7 253.03-28.3L253.03-28.3 252.03-24.15Q251.18-24.3 247-24.48 242.83-24.65 234.88-24.65L234.88-24.65 232.33-24.65Q228.33-24.65 228.33-21.1L228.33-21.1 228.33-8.35Q228.33-6.65 229.2-5.73 230.08-4.8 232.33-4.8L232.33-4.8 234.38-4.8Q242.68-4.8 247.25-4.98 251.83-5.15 252.93-5.35L252.93-5.35 254.98-2.05Q254.98-1.8 254.15-1.3 253.33-0.8 251.13-0.4 248.93 0 244.78 0L244.78 0ZM283.53 0L268.63 0Q265.08 0 263.08-1 261.08-2 260.28-4 259.48-6 259.48-8.95L259.48-8.95 259.48-20.1Q259.48-24.9 261.63-27.18 263.78-29.45 268.63-29.45L268.63-29.45 283.68-29.45Q287.13-29.45 288.95-29.08 290.78-28.7 290.78-28.3L290.78-28.3 289.78-24.15Q288.93-24.3 284.75-24.48 280.58-24.65 272.63-24.65L272.63-24.65 270.08-24.65Q266.08-24.65 266.08-21.1L266.08-21.1 266.08-8.35Q266.08-6.65 266.95-5.73 267.83-4.8 270.08-4.8L270.08-4.8 272.13-4.8Q276.93-4.8 280.23-4.88 283.53-4.95 285.68-5L285.68-5 285.68-11.8 282.68-11.75 276.13-11.25 276.13-16.15 292.23-16.15 292.23-2.1 292.73-1.05Q292.73-0.65 290.63-0.33 288.53 0 283.53 0L283.53 0Z" opacity="1" transform="matrix(1,0,0,1,0,0)" fill="#e8d584" class="undefined-text-0" data-fill-palette-color="primary" id="text-0"></path></svg></g></svg></g></svg></g></svg></g><g></g></svg></g></svg></g></svg></g></svg></g><defs></defs></svg><rect width="375.07953" height="98.40913999999998" fill="none" stroke="none" visibility="hidden"></rect></g></svg></g></svg>